<mxfile host="app.diagrams.net" agent="Mozilla/5.0 (X11; Linux x86_64) AppleWebKit/537.36 (KHTML, like Gecko) Chrome/132.0.0.0 Safari/537.36" version="26.0.9">
  <diagram name="Page-1" id="Qvw7MLHpXKNOrGMomk17">
    <mxGraphModel dx="1364" dy="793" grid="1" gridSize="10" guides="1" tooltips="1" connect="1" arrows="1" fold="1" page="1" pageScale="1" pageWidth="850" pageHeight="1100" math="0" shadow="0">
      <root>
        <mxCell id="0" />
        <mxCell id="1" parent="0" />
        <mxCell id="7yqLMyhUtrhNEIbn_2qh-3" value="" style="edgeStyle=orthogonalEdgeStyle;rounded=0;orthogonalLoop=1;jettySize=auto;html=1;" edge="1" parent="1" source="7yqLMyhUtrhNEIbn_2qh-1">
          <mxGeometry relative="1" as="geometry">
            <mxPoint x="450" y="380" as="targetPoint" />
          </mxGeometry>
        </mxCell>
        <mxCell id="7yqLMyhUtrhNEIbn_2qh-1" value="START" style="ellipse;whiteSpace=wrap;html=1;" vertex="1" parent="1">
          <mxGeometry x="390" y="210" width="120" height="80" as="geometry" />
        </mxCell>
        <mxCell id="7yqLMyhUtrhNEIbn_2qh-6" value="" style="edgeStyle=orthogonalEdgeStyle;rounded=0;orthogonalLoop=1;jettySize=auto;html=1;" edge="1" parent="1" source="7yqLMyhUtrhNEIbn_2qh-4" target="7yqLMyhUtrhNEIbn_2qh-5">
          <mxGeometry relative="1" as="geometry" />
        </mxCell>
        <mxCell id="7yqLMyhUtrhNEIbn_2qh-4" value="READ A" style="shape=parallelogram;perimeter=parallelogramPerimeter;whiteSpace=wrap;html=1;fixedSize=1;" vertex="1" parent="1">
          <mxGeometry x="390" y="380" width="120" height="60" as="geometry" />
        </mxCell>
        <mxCell id="7yqLMyhUtrhNEIbn_2qh-8" value="" style="edgeStyle=orthogonalEdgeStyle;rounded=0;orthogonalLoop=1;jettySize=auto;html=1;" edge="1" parent="1" source="7yqLMyhUtrhNEIbn_2qh-5" target="7yqLMyhUtrhNEIbn_2qh-7">
          <mxGeometry relative="1" as="geometry" />
        </mxCell>
        <mxCell id="7yqLMyhUtrhNEIbn_2qh-5" value="READ B" style="shape=parallelogram;perimeter=parallelogramPerimeter;whiteSpace=wrap;html=1;fixedSize=1;" vertex="1" parent="1">
          <mxGeometry x="390" y="470" width="120" height="60" as="geometry" />
        </mxCell>
        <mxCell id="7yqLMyhUtrhNEIbn_2qh-13" value="" style="edgeStyle=orthogonalEdgeStyle;rounded=0;orthogonalLoop=1;jettySize=auto;html=1;" edge="1" parent="1" source="7yqLMyhUtrhNEIbn_2qh-7" target="7yqLMyhUtrhNEIbn_2qh-12">
          <mxGeometry relative="1" as="geometry" />
        </mxCell>
        <mxCell id="7yqLMyhUtrhNEIbn_2qh-14" value="FALSE" style="edgeLabel;html=1;align=center;verticalAlign=middle;resizable=0;points=[];" vertex="1" connectable="0" parent="7yqLMyhUtrhNEIbn_2qh-13">
          <mxGeometry x="-0.0267" relative="1" as="geometry">
            <mxPoint as="offset" />
          </mxGeometry>
        </mxCell>
        <mxCell id="7yqLMyhUtrhNEIbn_2qh-16" value="" style="edgeStyle=orthogonalEdgeStyle;rounded=0;orthogonalLoop=1;jettySize=auto;html=1;" edge="1" parent="1" source="7yqLMyhUtrhNEIbn_2qh-7" target="7yqLMyhUtrhNEIbn_2qh-15">
          <mxGeometry relative="1" as="geometry" />
        </mxCell>
        <mxCell id="7yqLMyhUtrhNEIbn_2qh-17" value="TRUE" style="edgeLabel;html=1;align=center;verticalAlign=middle;resizable=0;points=[];" vertex="1" connectable="0" parent="7yqLMyhUtrhNEIbn_2qh-16">
          <mxGeometry x="-0.2222" y="1" relative="1" as="geometry">
            <mxPoint as="offset" />
          </mxGeometry>
        </mxCell>
        <mxCell id="7yqLMyhUtrhNEIbn_2qh-7" value="&lt;span style=&quot;color: rgb(29, 33, 37); font-family: -apple-system, BlinkMacSystemFont, &amp;quot;Segoe UI&amp;quot;, Roboto, &amp;quot;Helvetica Neue&amp;quot;, Arial, &amp;quot;Noto Sans&amp;quot;, &amp;quot;Liberation Sans&amp;quot;, sans-serif, &amp;quot;Apple Color Emoji&amp;quot;, &amp;quot;Segoe UI Emoji&amp;quot;, &amp;quot;Segoe UI Symbol&amp;quot;, &amp;quot;Noto Color Emoji&amp;quot;; font-size: 14.9357px; text-align: left; background-color: rgb(255, 255, 255);&quot;&gt;&amp;nbsp;𝐴 &amp;lt; 𝐵&lt;/span&gt;&lt;div&gt;&lt;span style=&quot;color: rgb(29, 33, 37); font-family: -apple-system, BlinkMacSystemFont, &amp;quot;Segoe UI&amp;quot;, Roboto, &amp;quot;Helvetica Neue&amp;quot;, Arial, &amp;quot;Noto Sans&amp;quot;, &amp;quot;Liberation Sans&amp;quot;, sans-serif, &amp;quot;Apple Color Emoji&amp;quot;, &amp;quot;Segoe UI Emoji&amp;quot;, &amp;quot;Segoe UI Symbol&amp;quot;, &amp;quot;Noto Color Emoji&amp;quot;; font-size: 14.9357px; text-align: left; background-color: rgb(255, 255, 255);&quot;&gt;and&lt;/span&gt;&lt;/div&gt;&lt;div&gt;&lt;span style=&quot;color: rgb(29, 33, 37); font-family: -apple-system, BlinkMacSystemFont, &amp;quot;Segoe UI&amp;quot;, Roboto, &amp;quot;Helvetica Neue&amp;quot;, Arial, &amp;quot;Noto Sans&amp;quot;, &amp;quot;Liberation Sans&amp;quot;, sans-serif, &amp;quot;Apple Color Emoji&amp;quot;, &amp;quot;Segoe UI Emoji&amp;quot;, &amp;quot;Segoe UI Symbol&amp;quot;, &amp;quot;Noto Color Emoji&amp;quot;; font-size: 14.9357px; text-align: left; background-color: rgb(255, 255, 255);&quot;&gt;A &amp;gt; 0&lt;/span&gt;&lt;/div&gt;&lt;div&gt;&lt;span style=&quot;color: rgb(29, 33, 37); font-family: -apple-system, BlinkMacSystemFont, &amp;quot;Segoe UI&amp;quot;, Roboto, &amp;quot;Helvetica Neue&amp;quot;, Arial, &amp;quot;Noto Sans&amp;quot;, &amp;quot;Liberation Sans&amp;quot;, sans-serif, &amp;quot;Apple Color Emoji&amp;quot;, &amp;quot;Segoe UI Emoji&amp;quot;, &amp;quot;Segoe UI Symbol&amp;quot;, &amp;quot;Noto Color Emoji&amp;quot;; font-size: 14.9357px; text-align: left; background-color: rgb(255, 255, 255);&quot;&gt;and&lt;/span&gt;&lt;/div&gt;&lt;div&gt;&lt;span style=&quot;color: rgb(29, 33, 37); font-family: -apple-system, BlinkMacSystemFont, &amp;quot;Segoe UI&amp;quot;, Roboto, &amp;quot;Helvetica Neue&amp;quot;, Arial, &amp;quot;Noto Sans&amp;quot;, &amp;quot;Liberation Sans&amp;quot;, sans-serif, &amp;quot;Apple Color Emoji&amp;quot;, &amp;quot;Segoe UI Emoji&amp;quot;, &amp;quot;Segoe UI Symbol&amp;quot;, &amp;quot;Noto Color Emoji&amp;quot;; font-size: 14.9357px; text-align: left; background-color: rgb(255, 255, 255);&quot;&gt;B&amp;gt; 0&lt;/span&gt;&lt;/div&gt;" style="rhombus;whiteSpace=wrap;html=1;" vertex="1" parent="1">
          <mxGeometry x="380" y="600" width="140" height="140" as="geometry" />
        </mxCell>
        <mxCell id="7yqLMyhUtrhNEIbn_2qh-36" value="" style="edgeStyle=orthogonalEdgeStyle;rounded=0;orthogonalLoop=1;jettySize=auto;html=1;" edge="1" parent="1" source="7yqLMyhUtrhNEIbn_2qh-11" target="7yqLMyhUtrhNEIbn_2qh-35">
          <mxGeometry relative="1" as="geometry" />
        </mxCell>
        <mxCell id="7yqLMyhUtrhNEIbn_2qh-11" value="WRITE &quot;&lt;span style=&quot;color: rgb(29, 33, 37); font-family: -apple-system, BlinkMacSystemFont, &amp;quot;Segoe UI&amp;quot;, Roboto, &amp;quot;Helvetica Neue&amp;quot;, Arial, &amp;quot;Noto Sans&amp;quot;, &amp;quot;Liberation Sans&amp;quot;, sans-serif, &amp;quot;Apple Color Emoji&amp;quot;, &amp;quot;Segoe UI Emoji&amp;quot;, &amp;quot;Segoe UI Symbol&amp;quot;, &amp;quot;Noto Color Emoji&amp;quot;; font-size: 14.9357px; text-align: left; background-color: rgb(255, 255, 255);&quot;&gt;errore&quot;&lt;/span&gt;" style="shape=parallelogram;perimeter=parallelogramPerimeter;whiteSpace=wrap;html=1;fixedSize=1;" vertex="1" parent="1">
          <mxGeometry x="140" y="640" width="120" height="60" as="geometry" />
        </mxCell>
        <mxCell id="7yqLMyhUtrhNEIbn_2qh-12" value="" style="shape=waypoint;sketch=0;size=6;pointerEvents=1;points=[];fillColor=default;resizable=0;rotatable=0;perimeter=centerPerimeter;snapToPoint=1;" vertex="1" parent="1">
          <mxGeometry x="250" y="660" width="20" height="20" as="geometry" />
        </mxCell>
        <mxCell id="7yqLMyhUtrhNEIbn_2qh-22" value="" style="edgeStyle=orthogonalEdgeStyle;rounded=0;orthogonalLoop=1;jettySize=auto;html=1;" edge="1" parent="1" source="7yqLMyhUtrhNEIbn_2qh-15" target="7yqLMyhUtrhNEIbn_2qh-21">
          <mxGeometry relative="1" as="geometry" />
        </mxCell>
        <mxCell id="7yqLMyhUtrhNEIbn_2qh-15" value="SOMMA + = A" style="whiteSpace=wrap;html=1;" vertex="1" parent="1">
          <mxGeometry x="640" y="640" width="120" height="60" as="geometry" />
        </mxCell>
        <mxCell id="7yqLMyhUtrhNEIbn_2qh-24" value="" style="edgeStyle=orthogonalEdgeStyle;rounded=0;orthogonalLoop=1;jettySize=auto;html=1;" edge="1" parent="1" source="7yqLMyhUtrhNEIbn_2qh-21">
          <mxGeometry relative="1" as="geometry">
            <mxPoint x="1040" y="670" as="targetPoint" />
          </mxGeometry>
        </mxCell>
        <mxCell id="7yqLMyhUtrhNEIbn_2qh-21" value="A += 1" style="rounded=1;whiteSpace=wrap;html=1;" vertex="1" parent="1">
          <mxGeometry x="840" y="640" width="120" height="60" as="geometry" />
        </mxCell>
        <mxCell id="7yqLMyhUtrhNEIbn_2qh-27" value="" style="edgeStyle=orthogonalEdgeStyle;rounded=0;orthogonalLoop=1;jettySize=auto;html=1;" edge="1" parent="1" source="7yqLMyhUtrhNEIbn_2qh-25" target="7yqLMyhUtrhNEIbn_2qh-26">
          <mxGeometry relative="1" as="geometry" />
        </mxCell>
        <mxCell id="7yqLMyhUtrhNEIbn_2qh-30" value="FALSE" style="edgeLabel;html=1;align=center;verticalAlign=middle;resizable=0;points=[];" vertex="1" connectable="0" parent="7yqLMyhUtrhNEIbn_2qh-27">
          <mxGeometry x="-0.4" y="-1" relative="1" as="geometry">
            <mxPoint as="offset" />
          </mxGeometry>
        </mxCell>
        <mxCell id="7yqLMyhUtrhNEIbn_2qh-32" value="" style="edgeStyle=orthogonalEdgeStyle;rounded=0;orthogonalLoop=1;jettySize=auto;html=1;" edge="1" parent="1" source="7yqLMyhUtrhNEIbn_2qh-25" target="7yqLMyhUtrhNEIbn_2qh-31">
          <mxGeometry relative="1" as="geometry" />
        </mxCell>
        <mxCell id="7yqLMyhUtrhNEIbn_2qh-41" value="TRUE" style="edgeLabel;html=1;align=center;verticalAlign=middle;resizable=0;points=[];" vertex="1" connectable="0" parent="7yqLMyhUtrhNEIbn_2qh-32">
          <mxGeometry x="-0.1556" y="2" relative="1" as="geometry">
            <mxPoint as="offset" />
          </mxGeometry>
        </mxCell>
        <mxCell id="7yqLMyhUtrhNEIbn_2qh-25" value="A &amp;gt;B" style="rhombus;whiteSpace=wrap;html=1;" vertex="1" parent="1">
          <mxGeometry x="1030" y="630" width="80" height="80" as="geometry" />
        </mxCell>
        <mxCell id="7yqLMyhUtrhNEIbn_2qh-29" value="" style="edgeStyle=orthogonalEdgeStyle;rounded=0;orthogonalLoop=1;jettySize=auto;html=1;" edge="1" parent="1" source="7yqLMyhUtrhNEIbn_2qh-26" target="7yqLMyhUtrhNEIbn_2qh-28">
          <mxGeometry relative="1" as="geometry" />
        </mxCell>
        <mxCell id="7yqLMyhUtrhNEIbn_2qh-26" value="" style="shape=waypoint;sketch=0;size=6;pointerEvents=1;points=[];fillColor=default;resizable=0;rotatable=0;perimeter=centerPerimeter;snapToPoint=1;" vertex="1" parent="1">
          <mxGeometry x="1060" y="500" width="20" height="20" as="geometry" />
        </mxCell>
        <mxCell id="7yqLMyhUtrhNEIbn_2qh-28" value="" style="shape=waypoint;sketch=0;size=6;pointerEvents=1;points=[];fillColor=default;resizable=0;rotatable=0;perimeter=centerPerimeter;snapToPoint=1;" vertex="1" parent="1">
          <mxGeometry x="690" y="630" width="20" height="20" as="geometry" />
        </mxCell>
        <mxCell id="7yqLMyhUtrhNEIbn_2qh-34" value="" style="edgeStyle=orthogonalEdgeStyle;rounded=0;orthogonalLoop=1;jettySize=auto;html=1;" edge="1" parent="1" source="7yqLMyhUtrhNEIbn_2qh-31" target="7yqLMyhUtrhNEIbn_2qh-33">
          <mxGeometry relative="1" as="geometry" />
        </mxCell>
        <mxCell id="7yqLMyhUtrhNEIbn_2qh-31" value="WRITE SOMMA" style="shape=parallelogram;perimeter=parallelogramPerimeter;whiteSpace=wrap;html=1;fixedSize=1;" vertex="1" parent="1">
          <mxGeometry x="1010" y="800" width="120" height="60" as="geometry" />
        </mxCell>
        <mxCell id="7yqLMyhUtrhNEIbn_2qh-33" value="" style="shape=waypoint;sketch=0;size=6;pointerEvents=1;points=[];fillColor=default;resizable=0;rotatable=0;perimeter=centerPerimeter;snapToPoint=1;" vertex="1" parent="1">
          <mxGeometry x="550" y="820" width="20" height="20" as="geometry" />
        </mxCell>
        <mxCell id="7yqLMyhUtrhNEIbn_2qh-38" value="" style="edgeStyle=orthogonalEdgeStyle;rounded=0;orthogonalLoop=1;jettySize=auto;html=1;" edge="1" parent="1" source="7yqLMyhUtrhNEIbn_2qh-35" target="7yqLMyhUtrhNEIbn_2qh-37">
          <mxGeometry relative="1" as="geometry" />
        </mxCell>
        <mxCell id="7yqLMyhUtrhNEIbn_2qh-35" value="" style="shape=waypoint;sketch=0;size=6;pointerEvents=1;points=[];fillColor=default;resizable=0;rotatable=0;perimeter=centerPerimeter;snapToPoint=1;" vertex="1" parent="1">
          <mxGeometry x="190" y="810" width="20" height="20" as="geometry" />
        </mxCell>
        <mxCell id="7yqLMyhUtrhNEIbn_2qh-40" value="" style="edgeStyle=orthogonalEdgeStyle;rounded=0;orthogonalLoop=1;jettySize=auto;html=1;" edge="1" parent="1" source="7yqLMyhUtrhNEIbn_2qh-37" target="7yqLMyhUtrhNEIbn_2qh-39">
          <mxGeometry relative="1" as="geometry" />
        </mxCell>
        <mxCell id="7yqLMyhUtrhNEIbn_2qh-37" value="" style="shape=waypoint;sketch=0;size=6;pointerEvents=1;points=[];fillColor=default;resizable=0;rotatable=0;perimeter=centerPerimeter;snapToPoint=1;" vertex="1" parent="1">
          <mxGeometry x="550" y="820" width="20" height="20" as="geometry" />
        </mxCell>
        <mxCell id="7yqLMyhUtrhNEIbn_2qh-39" value="END" style="ellipse;whiteSpace=wrap;html=1;sketch=0;pointerEvents=1;resizable=0;" vertex="1" parent="1">
          <mxGeometry x="520" y="890" width="80" height="80" as="geometry" />
        </mxCell>
      </root>
    </mxGraphModel>
  </diagram>
</mxfile>
